<svg width="18" height="30" viewBox="0 0 18 30" fill="none" xmlns="http://www.w3.org/2000/svg">
<path d="M8.15757 6.7898C8.93506 6.7898 9.56539 6.15948 9.56539 5.38199C9.56539 3.96685 10.7168 2.81563 12.1317 2.81563H16.1072C16.8847 2.81563 17.515 2.18531 17.515 1.40782C17.515 0.630326 16.8847 0 16.1072 0H12.1317C9.16407 0 6.74976 2.41431 6.74976 5.38199C6.74976 6.15929 7.38008 6.7898 8.15757 6.7898Z" fill="#356689"/>
<path d="M15.8055 11.1925H1.40782C0.630326 11.1925 0 11.8228 0 12.6003C0 13.3778 0.630326 14.0081 1.40782 14.0081H6.75001V28.5922C6.75001 29.3697 7.38034 30 8.15783 30C8.93532 30 9.56564 29.3697 9.56564 28.5922V14.0081H15.8056C16.5831 14.0081 17.2135 13.3778 17.2135 12.6003C17.2135 11.8228 16.5829 11.1925 15.8055 11.1925Z" fill="#356689"/>
</svg>
