<svg width="229" height="81" viewBox="0 0 229 81" fill="none" xmlns="http://www.w3.org/2000/svg">
<path d="M53.6875 14.1875C53.625 14.4792 53.4896 14.7083 53.2812 14.875C53.0729 15.0417 52.8438 15.125 52.5938 15.125C52.2188 15.125 51.9167 15.0104 51.6875 14.7812C51.4583 14.5312 51.3438 14.25 51.3438 13.9375C51.3438 13.625 51.375 13.3229 51.4375 13.0312C51.5 12.7188 51.5312 12.4167 51.5312 12.125C51.5312 10.6042 51.0625 9.23958 50.125 8.03125C49.1875 6.82292 47.8542 5.8125 46.125 5C44.4167 4.16667 42.3333 3.53125 39.875 3.09375C37.4167 2.65625 34.6771 2.4375 31.6562 2.4375C29.3438 2.4375 27.0104 2.59375 24.6562 2.90625C22.3229 3.19792 20.0729 3.63542 17.9062 4.21875C15.7604 4.78125 13.75 5.5 11.875 6.375C10 7.22917 8.36458 8.22917 6.96875 9.375C5.59375 10.5 4.51042 11.7604 3.71875 13.1562C2.92708 14.5312 2.53125 16.0417 2.53125 17.6875C2.53125 18.9583 2.80208 20.0833 3.34375 21.0625C3.90625 22.0208 4.66667 22.8646 5.625 23.5938C6.58333 24.3021 7.70833 24.9167 9 25.4375C10.3125 25.9375 11.7292 26.3646 13.25 26.7188C14.7708 27.0521 16.3542 27.3333 18 27.5625C19.6458 27.7708 21.3021 27.9479 22.9688 28.0938L27.7812 28.5C30.1771 28.7083 32.3229 28.9271 34.2188 29.1562C36.1146 29.3854 37.7812 29.6771 39.2188 30.0312C41.6146 30.6354 43.3854 31.5 44.5312 32.625C45.6771 33.75 46.25 35.25 46.25 37.125C46.25 38.9375 45.75 40.5312 44.75 41.9062C43.75 43.2812 42.3854 44.4375 40.6562 45.375C38.9271 46.3125 36.9062 47.0208 34.5938 47.5C32.2812 47.9792 29.8021 48.2188 27.1562 48.2188C24.2812 48.2188 21.75 48.0208 19.5625 47.625C17.3958 47.25 15.5729 46.8333 14.0938 46.375C12.6354 45.8958 11.5208 45.4583 10.75 45.0625C9.97917 44.6667 9.5625 44.4479 9.5 44.4062C9.125 44.1979 8.9375 43.8646 8.9375 43.4062C8.9375 43.0521 9.0625 42.7708 9.3125 42.5625C9.5625 42.3333 9.83333 42.2188 10.125 42.2188C10.3542 42.2188 10.5625 42.2812 10.75 42.4062C10.7708 42.4062 11.125 42.5938 11.8125 42.9688C12.5208 43.3229 13.5625 43.7188 14.9375 44.1562C16.3333 44.5938 18.0521 44.9896 20.0938 45.3438C22.1354 45.6979 24.5104 45.875 27.2188 45.875C29.9062 45.875 32.2812 45.6562 34.3438 45.2188C36.4062 44.7812 38.1354 44.1771 39.5312 43.4062C40.9479 42.6146 42.0104 41.6979 42.7188 40.6562C43.4479 39.5938 43.8125 38.4479 43.8125 37.2188C43.8125 36.4896 43.6771 35.8646 43.4062 35.3438C43.1562 34.8021 42.8021 34.3438 42.3438 33.9688C41.8854 33.5729 41.3333 33.2396 40.6875 32.9688C40.0625 32.6979 39.375 32.4688 38.625 32.2812C37.8333 32.0729 36.9792 31.8958 36.0625 31.75C35.1667 31.6042 34.2396 31.4792 33.2812 31.375C32.3229 31.2708 31.3542 31.1771 30.375 31.0938C29.4167 31.0104 28.4688 30.9271 27.5312 30.8438L22.7188 30.4375C18.9271 30.125 15.6146 29.6458 12.7812 29C9.96875 28.3333 7.625 27.4896 5.75 26.4688C3.875 25.4271 2.46875 24.1875 1.53125 22.75C0.59375 21.3125 0.125 19.6354 0.125 17.7188C0.125 15.7604 0.5625 13.9688 1.4375 12.3438C2.33333 10.6979 3.54167 9.21875 5.0625 7.90625C6.60417 6.59375 8.39583 5.45833 10.4375 4.5C12.5 3.52083 14.6979 2.70833 17.0312 2.0625C19.3646 1.41667 21.7812 0.9375 24.2812 0.625C26.7812 0.291667 29.2396 0.125 31.6562 0.125C34.6771 0.125 37.3021 0.3125 39.5312 0.6875C41.7812 1.04167 43.6979 1.51042 45.2812 2.09375C46.8854 2.65625 48.1979 3.30208 49.2188 4.03125C50.2396 4.76042 51.0625 5.47917 51.6875 6.1875C53.1667 7.91667 53.9062 9.88542 53.9062 12.0938C53.9062 12.8229 53.8333 13.5208 53.6875 14.1875ZM57.9688 44.2188C58.2812 43.5938 58.6771 42.8229 59.1562 41.9062C59.6562 40.9688 60.1667 40.0312 60.6875 39.0938C61.2292 38.1562 61.75 37.2708 62.25 36.4375C62.7708 35.6042 63.2083 34.9688 63.5625 34.5312C64.1667 33.8021 64.7917 33.2812 65.4375 32.9688C66.0833 32.6562 66.6771 32.5 67.2188 32.5C67.7604 32.5 68.2188 32.6146 68.5938 32.8438C68.9896 33.0729 69.3125 33.3854 69.5625 33.7812C69.8125 34.1562 70 34.6042 70.125 35.125C70.25 35.625 70.3125 36.1667 70.3125 36.75C70.3125 37.0833 70.2917 37.5208 70.25 38.0625C70.2292 38.6042 70.1979 39.1875 70.1562 39.8125C70.1354 40.4375 70.1042 41.0833 70.0625 41.75C70.0417 42.4167 70.0208 43.0417 70 43.625C70.3125 43 70.6667 42.3125 71.0625 41.5625C71.4583 40.7917 71.8542 40.0312 72.25 39.2812C72.6667 38.5312 73.0625 37.8333 73.4375 37.1875C73.8125 36.5208 74.1562 35.9792 74.4688 35.5625C75.3646 34.3333 76.1979 33.5104 76.9688 33.0938C77.7604 32.6771 78.4583 32.4688 79.0625 32.4688C79.7708 32.4688 80.3542 32.6042 80.8125 32.875C81.2708 33.125 81.625 33.4583 81.875 33.875C82.1458 34.2708 82.3333 34.7188 82.4375 35.2188C82.5417 35.7188 82.5938 36.1979 82.5938 36.6562C82.5938 37.3646 82.5417 38.1042 82.4375 38.875C82.3333 39.6458 82.2812 40.5625 82.2812 41.625C82.2812 42.0625 82.3021 42.5 82.3438 42.9375C82.3854 43.375 82.4688 43.7604 82.5938 44.0938C82.7396 44.4271 82.9583 44.6979 83.25 44.9062C83.5417 45.1146 83.9375 45.2188 84.4375 45.2188C84.9792 45.2188 85.5104 45.0833 86.0312 44.8125C86.5521 44.5208 87.0521 44.1458 87.5312 43.6875C88.0104 43.2292 88.4583 42.7083 88.875 42.125C89.3125 41.5417 89.7083 40.9583 90.0625 40.375C90.4167 39.7917 90.7292 39.2396 91 38.7188C91.2708 38.1771 91.4896 37.7188 91.6562 37.3438C91.7604 37.1146 91.9062 36.9375 92.0938 36.8125C92.2812 36.6875 92.4896 36.625 92.7188 36.625C93.0729 36.625 93.3542 36.7604 93.5625 37.0312C93.7917 37.2812 93.9062 37.5521 93.9062 37.8438C93.9062 37.9896 93.875 38.1354 93.8125 38.2812C93.7292 38.4479 93.5625 38.8021 93.3125 39.3438C93.0625 39.8646 92.7292 40.4688 92.3125 41.1562C91.8958 41.8229 91.4062 42.5312 90.8438 43.2812C90.3021 44.0312 89.6979 44.7292 89.0312 45.375C88.3646 46 87.6458 46.5208 86.875 46.9375C86.1042 47.3333 85.2917 47.5312 84.4375 47.5312C83.5208 47.5312 82.7708 47.3646 82.1875 47.0312C81.625 46.7188 81.1667 46.2917 80.8125 45.75C80.4792 45.2083 80.25 44.5833 80.125 43.875C80 43.1667 79.9375 42.4271 79.9375 41.6562C79.9375 40.6354 79.9896 39.6979 80.0938 38.8438C80.1979 37.9688 80.25 37.2917 80.25 36.8125C80.25 36.2917 80.1979 35.8958 80.0938 35.625C80.0104 35.3542 79.8958 35.1667 79.75 35.0625C79.625 34.9375 79.5 34.875 79.375 34.875C79.25 34.8542 79.1562 34.8438 79.0938 34.8438C78.5938 34.8438 78.0625 35.125 77.5 35.6875C76.9583 36.2292 76.3958 36.9583 75.8125 37.875C75.2292 38.7917 74.625 39.8333 74 41C73.3958 42.1667 72.7812 43.3542 72.1562 44.5625C71.8021 45.2292 71.5 45.7812 71.25 46.2188C71.0208 46.6562 70.7917 47 70.5625 47.25C70.3542 47.5 70.1458 47.6771 69.9375 47.7812C69.7292 47.8854 69.5 47.9375 69.25 47.9375C68.7083 47.9375 68.2917 47.75 68 47.375C67.7292 47 67.5938 46.5104 67.5938 45.9062C67.5938 45.5938 67.6042 45.1771 67.625 44.6562C67.6458 44.1354 67.6667 43.5625 67.6875 42.9375C67.7083 42.3125 67.7396 41.6667 67.7812 41C67.8229 40.3333 67.8542 39.6979 67.875 39.0938C67.8958 38.4688 67.9167 37.9167 67.9375 37.4375C67.9583 36.9583 67.9688 36.5938 67.9688 36.3438C67.9688 35.8021 67.875 35.4167 67.6875 35.1875C67.5 34.9375 67.2812 34.8125 67.0312 34.8125C66.8021 34.8125 66.5417 34.8958 66.25 35.0625C65.9792 35.2292 65.6562 35.5521 65.2812 36.0312C64.9896 36.4062 64.6146 36.9583 64.1562 37.6875C63.7188 38.3958 63.25 39.1875 62.75 40.0625C62.25 40.9375 61.75 41.8333 61.25 42.75C60.7708 43.6667 60.3542 44.4896 60 45.2188C59.5625 46.0938 59.125 46.6875 58.6875 47C58.25 47.3333 57.8229 47.5 57.4062 47.5C56.8021 47.5 56.3542 47.3229 56.0625 46.9688C55.7708 46.5938 55.625 46.1042 55.625 45.5C55.625 45.4375 55.6354 45.0625 55.6562 44.375C55.6979 43.6875 55.7396 42.8542 55.7812 41.875C55.8229 40.875 55.8646 39.8125 55.9062 38.6875C55.9688 37.5625 56.0208 36.5104 56.0625 35.5312C56.0833 35.0104 56.0625 34.5312 56 34.0938C55.9375 33.6562 55.8542 33.3958 55.75 33.3125C55.5833 33.3542 55.25 33.7396 54.75 34.4688C54.2708 35.1979 53.6562 36.4688 52.9062 38.2812C52.8021 38.5104 52.6458 38.6875 52.4375 38.8125C52.2292 38.9375 52.0104 39 51.7812 39C51.4271 39 51.1458 38.8854 50.9375 38.6562C50.7292 38.4062 50.625 38.125 50.625 37.8125C50.625 37.6667 50.6562 37.5104 50.7188 37.3438C51.6562 35.1146 52.5521 33.4792 53.4062 32.4375C54.2604 31.375 55.0938 30.8438 55.9062 30.8438C56.3854 30.8438 56.7812 30.9583 57.0938 31.1875C57.4271 31.3958 57.6875 31.6771 57.875 32.0312C58.0625 32.3646 58.1979 32.75 58.2812 33.1875C58.3646 33.625 58.4062 34.0521 58.4062 34.4688C58.4062 36.3229 58.3542 38.0208 58.25 39.5625C58.1667 41.1042 58.0729 42.6562 57.9688 44.2188ZM115.844 38.2812C115.76 38.4479 115.583 38.8021 115.312 39.3438C115.062 39.8646 114.729 40.4688 114.312 41.1562C113.917 41.8438 113.448 42.5625 112.906 43.3125C112.365 44.0625 111.76 44.75 111.094 45.375C110.427 46 109.708 46.5208 108.938 46.9375C108.167 47.3333 107.354 47.5312 106.5 47.5312C105.292 47.5312 104.271 47.1458 103.438 46.375C102.625 45.6042 102.031 44.6354 101.656 43.4688C100.948 44.6562 100.104 45.6042 99.125 46.3125C98.1458 47 97.1667 47.3438 96.1875 47.3438C95.4167 47.3438 94.7188 47.2083 94.0938 46.9375C93.4688 46.6458 92.9375 46.25 92.5 45.75C92.0625 45.2292 91.7188 44.625 91.4688 43.9375C91.2396 43.25 91.125 42.5 91.125 41.6875C91.125 40.0625 91.3958 38.6354 91.9375 37.4062C92.5 36.1562 93.2083 35.1146 94.0625 34.2812C94.9167 33.4479 95.8542 32.8229 96.875 32.4062C97.9167 31.9896 98.9167 31.7812 99.875 31.7812C100.521 31.7812 101.115 31.875 101.656 32.0625C102.198 32.2292 102.656 32.4167 103.031 32.625C103.427 32.8333 103.729 33.0312 103.938 33.2188C104.146 33.3854 104.26 33.4792 104.281 33.5C104.51 33.7708 104.625 34.0521 104.625 34.3438C104.625 34.6562 104.51 34.9375 104.281 35.1875C104.052 35.4167 103.781 35.5312 103.469 35.5312C103.135 35.5312 102.854 35.4167 102.625 35.1875C102.583 35.1458 102.49 35.0729 102.344 34.9688C102.198 34.8438 102 34.7188 101.75 34.5938C101.5 34.4688 101.198 34.3646 100.844 34.2812C100.51 34.1771 100.125 34.125 99.6875 34.125C99.0417 34.125 98.3542 34.2708 97.625 34.5625C96.8958 34.8542 96.2292 35.3125 95.625 35.9375C95.0208 36.5417 94.5104 37.3125 94.0938 38.25C93.6979 39.1667 93.5 40.2604 93.5 41.5312C93.5 41.9271 93.5417 42.3333 93.625 42.75C93.7083 43.1458 93.8542 43.5104 94.0625 43.8438C94.2708 44.1771 94.5521 44.4479 94.9062 44.6562C95.2604 44.8646 95.6979 44.9688 96.2188 44.9688C96.5938 44.9688 97.0208 44.8438 97.5 44.5938C98 44.3438 98.4688 43.9583 98.9062 43.4375C99.3646 42.9167 99.7708 42.2604 100.125 41.4688C100.5 40.6771 100.76 39.7396 100.906 38.6562C100.948 38.3646 101.083 38.125 101.312 37.9375C101.542 37.7292 101.812 37.625 102.125 37.625C102.417 37.625 102.667 37.7396 102.875 37.9688C103.104 38.1979 103.229 38.4583 103.25 38.75C103.271 39.1458 103.312 39.7083 103.375 40.4375C103.438 41.1458 103.573 41.8542 103.781 42.5625C104.01 43.2708 104.344 43.8854 104.781 44.4062C105.219 44.9271 105.823 45.1875 106.594 45.1875C107.094 45.1875 107.583 45.0521 108.062 44.7812C108.562 44.5104 109.042 44.1562 109.5 43.7188C109.979 43.2604 110.427 42.75 110.844 42.1875C111.281 41.6042 111.677 41.0208 112.031 40.4375C112.385 39.8542 112.698 39.2917 112.969 38.75C113.24 38.2083 113.469 37.7396 113.656 37.3438C113.76 37.1146 113.906 36.9375 114.094 36.8125C114.302 36.6875 114.521 36.625 114.75 36.625C115.104 36.625 115.385 36.7604 115.594 37.0312C115.823 37.2812 115.938 37.5521 115.938 37.8438C115.938 37.9896 115.906 38.1354 115.844 38.2812ZM116.969 34.1562C116.885 34.7188 116.781 35.25 116.656 35.75C116.531 36.2292 116.406 36.6562 116.281 37.0312C116.177 37.3854 116.083 37.6771 116 37.9062C115.917 38.1354 115.865 38.2604 115.844 38.2812C115.635 38.7604 115.271 39 114.75 39C114.458 39 114.188 38.8958 113.938 38.6875C113.688 38.4583 113.562 38.1771 113.562 37.8438C113.562 37.7188 113.583 37.625 113.625 37.5625C113.667 37.5 113.729 37.375 113.812 37.1875C113.896 37 114 36.6875 114.125 36.25C114.25 35.8125 114.406 35.1354 114.594 34.2188C114.24 34.2188 113.875 34.2083 113.5 34.1875C113.125 34.1667 112.781 34.0938 112.469 33.9688C112.135 33.8438 111.865 33.6458 111.656 33.375C111.448 33.1042 111.344 32.7292 111.344 32.25C111.344 31.8958 111.448 31.4167 111.656 30.8125C111.844 30.2083 112.104 29.6146 112.438 29.0312C112.771 28.4479 113.146 27.9479 113.562 27.5312C113.979 27.0938 114.396 26.875 114.812 26.875C115.292 26.875 115.677 27.0521 115.969 27.4062C116.281 27.7604 116.521 28.1979 116.688 28.7188C116.854 29.2188 116.969 29.75 117.031 30.3125C117.115 30.875 117.156 31.3646 117.156 31.7812C117.51 31.7812 117.854 31.7812 118.188 31.7812C118.542 31.7604 118.875 31.75 119.188 31.75C120.375 31.75 121.281 32.0104 121.906 32.5312C122.531 33.0521 122.844 33.9062 122.844 35.0938C122.844 35.5729 122.812 36.0729 122.75 36.5938C122.688 37.1146 122.615 37.6562 122.531 38.2188C122.448 38.7604 122.375 39.3021 122.312 39.8438C122.25 40.3854 122.219 40.9167 122.219 41.4375C122.219 42.1875 122.323 42.8125 122.531 43.3125C122.74 43.7917 123 44.1771 123.312 44.4688C123.625 44.7604 123.958 44.9688 124.312 45.0938C124.667 45.1979 124.99 45.25 125.281 45.25C126.177 45.25 127.021 44.9583 127.812 44.375C128.604 43.7917 129.333 43.0938 130 42.2812C130.667 41.4479 131.26 40.5729 131.781 39.6562C132.323 38.7396 132.771 37.9375 133.125 37.25C133.229 37.0625 133.375 36.9167 133.562 36.8125C133.75 36.7083 133.948 36.6562 134.156 36.6562C134.531 36.6562 134.823 36.7812 135.031 37.0312C135.24 37.2604 135.344 37.5208 135.344 37.8125C135.344 38.0208 135.302 38.2083 135.219 38.375C134.74 39.2292 134.177 40.1979 133.531 41.2812C132.906 42.3438 132.188 43.3438 131.375 44.2812C130.562 45.2188 129.646 46.0104 128.625 46.6562C127.625 47.3021 126.521 47.625 125.312 47.625C124.562 47.625 123.854 47.4792 123.188 47.1875C122.521 46.9167 121.938 46.5208 121.438 46C120.958 45.4583 120.573 44.8021 120.281 44.0312C119.99 43.2396 119.844 42.3542 119.844 41.375C119.844 40.3333 119.948 39.3021 120.156 38.2812C120.365 37.2396 120.469 36.25 120.469 35.3125C120.469 34.9167 120.375 34.625 120.188 34.4375C120.021 34.2292 119.635 34.125 119.031 34.125C118.74 34.125 118.417 34.125 118.062 34.125C117.729 34.125 117.365 34.1354 116.969 34.1562ZM114.875 31.8438C114.875 31.6979 114.865 31.5104 114.844 31.2812C114.844 31.0312 114.823 30.7917 114.781 30.5625C114.76 30.3333 114.719 30.1354 114.656 29.9688C114.615 29.8021 114.562 29.7188 114.5 29.7188C114.438 29.7188 114.354 29.8021 114.25 29.9688C114.167 30.1146 114.073 30.3021 113.969 30.5312C113.865 30.7396 113.771 30.9688 113.688 31.2188C113.604 31.4688 113.542 31.6771 113.5 31.8438H114.875ZM144.438 50.0625C148.354 44.9583 151.073 40.7188 152.594 37.3438C152.698 37.1146 152.833 36.9479 153 36.8438C153.188 36.7188 153.396 36.6562 153.625 36.6562C153.979 36.6562 154.271 36.7812 154.5 37.0312C154.729 37.2604 154.844 37.5312 154.844 37.8438C154.844 37.9896 154.812 38.1354 154.75 38.2812C153.833 40.3646 152.531 42.6875 150.844 45.25C149.156 47.8125 147.021 50.7083 144.438 53.9375C144.438 55.25 144.448 56.5625 144.469 57.875C144.49 59.1875 144.5 60.625 144.5 62.1875C144.5 63.75 144.458 65.2917 144.375 66.8125C144.312 68.3542 144.188 69.8125 144 71.1875C143.812 72.5833 143.552 73.8646 143.219 75.0312C142.906 76.2188 142.49 77.2396 141.969 78.0938C141.469 78.9688 140.854 79.6458 140.125 80.125C139.417 80.625 138.573 80.875 137.594 80.875C136.198 80.875 135.125 80.3438 134.375 79.2812C133.625 78.2188 133.25 76.7083 133.25 74.75C133.25 73.7083 133.344 72.5729 133.531 71.3438C133.74 70.1354 134.031 68.8854 134.406 67.5938C134.781 66.3021 135.229 64.9896 135.75 63.6562C136.292 62.3438 136.885 61.0625 137.531 59.8125C138.177 58.5625 138.875 57.3646 139.625 56.2188C140.396 55.0729 141.208 54.0312 142.062 53.0938C142.083 51.6354 142.094 50.1875 142.094 48.75C142.115 47.3125 142.146 45.9896 142.188 44.7812C141.562 45.5729 140.812 46.1979 139.938 46.6562C139.083 47.1146 138.229 47.3438 137.375 47.3438C136.646 47.3438 135.979 47.2083 135.375 46.9375C134.792 46.6458 134.292 46.25 133.875 45.75C133.458 45.2292 133.135 44.625 132.906 43.9375C132.677 43.25 132.562 42.5 132.562 41.6875C132.562 40.0625 132.833 38.6354 133.375 37.4062C133.938 36.1562 134.646 35.1146 135.5 34.2812C136.354 33.4479 137.292 32.8229 138.312 32.4062C139.354 31.9896 140.354 31.7812 141.312 31.7812C141.958 31.7812 142.552 31.8646 143.094 32.0312C143.635 32.1979 144.094 32.3854 144.469 32.5938C144.865 32.8021 145.167 33 145.375 33.1875C145.583 33.375 145.698 33.4792 145.719 33.5C145.948 33.75 146.062 34.0312 146.062 34.3438C146.062 34.6562 145.948 34.9375 145.719 35.1875C145.49 35.4167 145.219 35.5312 144.906 35.5312C144.615 35.5312 144.333 35.4167 144.062 35.1875C143.979 35.125 143.865 35.0417 143.719 34.9375C143.594 34.8125 143.417 34.6875 143.188 34.5625C142.979 34.4375 142.719 34.3333 142.406 34.25C142.115 34.1667 141.76 34.125 141.344 34.125C140.719 34.125 140.031 34.2708 139.281 34.5625C138.531 34.8333 137.833 35.2708 137.188 35.875C136.542 36.4792 136 37.2604 135.562 38.2188C135.125 39.1562 134.906 40.2917 134.906 41.625C134.906 42.625 135.125 43.4375 135.562 44.0625C136 44.6667 136.677 44.9688 137.594 44.9688C138.031 44.9688 138.49 44.8438 138.969 44.5938C139.469 44.3438 139.948 43.9583 140.406 43.4375C140.865 42.9167 141.26 42.2604 141.594 41.4688C141.948 40.6771 142.198 39.7396 142.344 38.6562C142.385 38.3646 142.521 38.125 142.75 37.9375C142.979 37.7292 143.25 37.625 143.562 37.625C143.917 37.625 144.188 37.75 144.375 38C144.583 38.25 144.688 38.5312 144.688 38.8438C144.688 38.8646 144.677 39.1875 144.656 39.8125C144.635 40.4167 144.615 41.2292 144.594 42.25C144.573 43.2708 144.542 44.4583 144.5 45.8125C144.479 47.1458 144.458 48.5625 144.438 50.0625ZM142.062 56.9062C141.083 58.2604 140.198 59.7292 139.406 61.3125C138.615 62.9167 137.938 64.5312 137.375 66.1562C136.812 67.7812 136.375 69.3542 136.062 70.875C135.771 72.4167 135.625 73.7917 135.625 75C135.625 75.7708 135.688 76.3854 135.812 76.8438C135.958 77.3021 136.125 77.6562 136.312 77.9062C136.521 78.1562 136.74 78.3229 136.969 78.4062C137.219 78.4896 137.448 78.5312 137.656 78.5312C138.302 78.5312 138.865 78.2708 139.344 77.75C139.823 77.2292 140.229 76.5312 140.562 75.6562C140.896 74.8021 141.167 73.8125 141.375 72.6875C141.583 71.5625 141.74 70.3958 141.844 69.1875C141.948 68 142.021 66.8125 142.062 65.625C142.104 64.4375 142.125 63.3438 142.125 62.3438C142.125 61.4479 142.125 60.5521 142.125 59.6562C142.125 58.7604 142.104 57.8438 142.062 56.9062ZM156.375 43.5625C156.812 44.1667 157.375 44.6562 158.062 45.0312C158.75 45.3854 159.594 45.5625 160.594 45.5625C161.615 45.5625 162.542 45.3229 163.375 44.8438C164.208 44.3438 164.969 43.6979 165.656 42.9062C166.344 42.1146 166.958 41.2292 167.5 40.25C168.042 39.2708 168.531 38.2917 168.969 37.3125C169.073 37.0833 169.219 36.9167 169.406 36.8125C169.594 36.6875 169.802 36.625 170.031 36.625C170.385 36.625 170.667 36.75 170.875 37C171.104 37.25 171.219 37.5208 171.219 37.8125C171.219 37.9167 171.208 38.0104 171.188 38.0938C171.167 38.1562 171.135 38.2292 171.094 38.3125C169.656 41.4792 168.083 43.8646 166.375 45.4688C164.688 47.0729 162.771 47.8958 160.625 47.9375C159.25 47.9375 158.062 47.6667 157.062 47.125C156.062 46.6042 155.24 45.9271 154.594 45.0938C153.948 44.2396 153.469 43.2812 153.156 42.2188C152.844 41.1562 152.688 40.0938 152.688 39.0312C152.688 37.9688 152.812 36.9896 153.062 36.0938C153.333 35.1979 153.708 34.4167 154.188 33.75C154.688 33.0833 155.271 32.5625 155.938 32.1875C156.625 31.8125 157.375 31.625 158.188 31.625C158.667 31.625 159.135 31.7292 159.594 31.9375C160.073 32.125 160.5 32.4062 160.875 32.7812C161.25 33.1354 161.552 33.5729 161.781 34.0938C162.01 34.6146 162.125 35.2083 162.125 35.875C162.125 36.7292 161.979 37.5312 161.688 38.2812C161.396 39.0312 160.99 39.7292 160.469 40.375C159.969 41.0208 159.365 41.6146 158.656 42.1562C157.948 42.6979 157.188 43.1667 156.375 43.5625ZM155.438 41.5312C156.083 41.2604 156.667 40.9167 157.188 40.5C157.729 40.0833 158.188 39.625 158.562 39.125C158.938 38.625 159.229 38.1042 159.438 37.5625C159.646 37 159.75 36.4375 159.75 35.875C159.75 35.25 159.594 34.7812 159.281 34.4688C158.969 34.1354 158.604 33.9688 158.188 33.9688C157.625 33.9688 157.146 34.125 156.75 34.4375C156.354 34.75 156.031 35.1562 155.781 35.6562C155.531 36.1562 155.344 36.7188 155.219 37.3438C155.115 37.9479 155.062 38.5521 155.062 39.1562C155.062 39.5312 155.094 39.9271 155.156 40.3438C155.24 40.7604 155.333 41.1562 155.438 41.5312ZM186.781 38.3438C186.552 38.8229 186.26 39.3958 185.906 40.0625C185.573 40.7083 185.188 41.3854 184.75 42.0938C184.312 42.8021 183.823 43.5104 183.281 44.2188C182.74 44.9062 182.146 45.5312 181.5 46.0938C180.875 46.6354 180.198 47.0729 179.469 47.4062C178.76 47.7604 178 47.9375 177.188 47.9375C175.938 47.9375 174.865 47.5521 173.969 46.7812C173.073 46.0104 172.312 45 171.688 43.75C171.062 42.5 170.552 41.0833 170.156 39.5C169.781 37.8958 169.49 36.2708 169.281 34.625C169.073 32.9583 168.927 31.3438 168.844 29.7812C168.781 28.2188 168.75 26.8333 168.75 25.625C168.75 23.875 168.802 22.0625 168.906 20.1875C169.031 18.3125 169.219 16.4792 169.469 14.6875C169.719 12.8958 170.031 11.1979 170.406 9.59375C170.802 7.98958 171.26 6.58333 171.781 5.375C172.323 4.16667 172.938 3.20833 173.625 2.5C174.312 1.79167 175.094 1.4375 175.969 1.4375C176.656 1.4375 177.271 1.60417 177.812 1.9375C178.375 2.25 178.844 2.77083 179.219 3.5C179.594 4.22917 179.885 5.17708 180.094 6.34375C180.302 7.51042 180.406 8.9375 180.406 10.625C180.406 12.7083 180.188 14.8646 179.75 17.0938C179.312 19.3021 178.719 21.5312 177.969 23.7812C177.219 26.0312 176.333 28.2812 175.312 30.5312C174.292 32.7604 173.198 34.9375 172.031 37.0625C172.552 39.7083 173.25 41.7917 174.125 43.3125C175 44.8125 176.052 45.5625 177.281 45.5625C178.115 45.5625 178.917 45.2396 179.688 44.5938C180.458 43.9271 181.167 43.1458 181.812 42.25C182.458 41.3542 183.021 40.4479 183.5 39.5312C184 38.5938 184.385 37.8438 184.656 37.2812C184.76 37.0729 184.906 36.9167 185.094 36.8125C185.281 36.6875 185.49 36.625 185.719 36.625C186.073 36.625 186.354 36.75 186.562 37C186.792 37.25 186.906 37.5312 186.906 37.8438C186.906 37.9688 186.865 38.1354 186.781 38.3438ZM171.125 25.7812C171.125 27.1146 171.156 28.3958 171.219 29.625C171.281 30.8542 171.365 32.0312 171.469 33.1562C172.344 31.4688 173.177 29.6771 173.969 27.7812C174.76 25.8646 175.458 23.9375 176.062 22C176.667 20.0417 177.146 18.1042 177.5 16.1875C177.875 14.25 178.062 12.4062 178.062 10.6562C178.062 8.19792 177.865 6.4375 177.469 5.375C177.073 4.3125 176.542 3.78125 175.875 3.78125C175.438 3.78125 175.01 4.08333 174.594 4.6875C174.198 5.29167 173.823 6.11458 173.469 7.15625C173.115 8.19792 172.792 9.42708 172.5 10.8438C172.208 12.2604 171.958 13.7812 171.75 15.4062C171.562 17.0312 171.406 18.7292 171.281 20.5C171.177 22.2708 171.125 24.0312 171.125 25.7812ZM199.094 43.5625C198.573 43.5625 198.115 43.5208 197.719 43.4375C197.406 44.0625 197.031 44.6458 196.594 45.1875C196.156 45.7083 195.646 46.1667 195.062 46.5625C194.5 46.9583 193.865 47.2708 193.156 47.5C192.448 47.7292 191.677 47.8438 190.844 47.8438C189.865 47.8438 188.969 47.6667 188.156 47.3125C187.344 46.9792 186.635 46.5104 186.031 45.9062C185.427 45.2812 184.958 44.5417 184.625 43.6875C184.292 42.8125 184.125 41.8542 184.125 40.8125C184.125 39.4792 184.365 38.3229 184.844 37.3438C185.323 36.3438 185.875 35.5208 186.5 34.875C187.125 34.2083 187.75 33.7188 188.375 33.4062C189 33.0729 189.469 32.9062 189.781 32.9062C190.135 32.9062 190.396 33 190.562 33.1875C190.75 33.375 190.844 33.625 190.844 33.9375C190.844 34.2917 190.729 34.5625 190.5 34.75C190.292 34.9167 190.021 35.0833 189.688 35.25C189.354 35.4167 189 35.6562 188.625 35.9688C188.25 36.2604 187.896 36.6354 187.562 37.0938C187.25 37.5521 186.99 38.0938 186.781 38.7188C186.573 39.3438 186.469 40.0417 186.469 40.8125C186.469 41.5 186.573 42.1458 186.781 42.75C186.99 43.3333 187.292 43.8438 187.688 44.2812C188.083 44.6979 188.552 45.0312 189.094 45.2812C189.635 45.5104 190.24 45.625 190.906 45.625C192.094 45.625 193.073 45.3542 193.844 44.8125C194.635 44.25 195.24 43.5417 195.656 42.6875C194.427 42.0417 193.417 41.125 192.625 39.9375C191.833 38.75 191.438 37.4167 191.438 35.9375C191.438 34.75 191.719 33.7812 192.281 33.0312C192.865 32.2812 193.625 31.9062 194.562 31.9062C195.125 31.9062 195.656 32.0417 196.156 32.3125C196.656 32.5833 197.094 33.0104 197.469 33.5938C197.865 34.1771 198.177 34.9271 198.406 35.8438C198.635 36.7604 198.75 37.8542 198.75 39.125C198.75 39.7917 198.667 40.4896 198.5 41.2188C198.625 41.2396 198.75 41.25 198.875 41.25C199 41.25 199.135 41.25 199.281 41.25C199.99 41.25 200.625 41.1667 201.188 41C201.75 40.8333 202.26 40.5833 202.719 40.25C203.177 39.9167 203.583 39.4896 203.938 38.9688C204.312 38.4479 204.667 37.8438 205 37.1562C205.062 37.0312 205.198 36.9167 205.406 36.8125C205.615 36.6875 205.823 36.625 206.031 36.625C206.302 36.625 206.552 36.7396 206.781 36.9688C207.031 37.1771 207.156 37.4583 207.156 37.8125C207.156 37.9792 207.115 38.1667 207.031 38.375C206.948 38.5625 206.865 38.7396 206.781 38.9062C206.427 39.5312 206.01 40.1354 205.531 40.7188C205.073 41.2812 204.521 41.7812 203.875 42.2188C203.25 42.6354 202.542 42.9688 201.75 43.2188C200.958 43.4688 200.073 43.5833 199.094 43.5625ZM193.75 35.6875C193.75 36.0833 193.802 36.5 193.906 36.9375C194.01 37.375 194.167 37.8125 194.375 38.25C194.604 38.6667 194.875 39.0729 195.188 39.4688C195.521 39.8438 195.906 40.1667 196.344 40.4375C196.406 40 196.438 39.5729 196.438 39.1562C196.438 38.5938 196.396 38.0208 196.312 37.4375C196.229 36.8542 196.104 36.3229 195.938 35.8438C195.792 35.3438 195.604 34.9479 195.375 34.6562C195.146 34.3438 194.875 34.1875 194.562 34.1875C194.438 34.1875 194.271 34.2812 194.062 34.4688C193.854 34.6562 193.75 35.0625 193.75 35.6875ZM217.594 37.1562C217.281 38.6146 216.833 39.9792 216.25 41.25C215.667 42.5 215.042 43.5938 214.375 44.5312C213.729 45.4688 213.073 46.2083 212.406 46.75C211.74 47.2917 211.167 47.5833 210.688 47.625C210.146 47.625 209.542 47.3542 208.875 46.8125C208.229 46.2708 207.604 45.5208 207 44.5625C206.417 43.5833 205.927 42.4271 205.531 41.0938C205.135 39.7604 204.938 38.3125 204.938 36.75C204.938 35.375 205.052 34.3333 205.281 33.625C205.531 32.9167 205.688 32.5104 205.75 32.4062C205.854 32.2188 205.99 32.0729 206.156 31.9688C206.344 31.8646 206.552 31.8125 206.781 31.8125C207.135 31.8125 207.417 31.9375 207.625 32.1875C207.833 32.4167 207.938 32.6771 207.938 32.9688C207.938 33.1771 207.896 33.3542 207.812 33.5C207.792 33.5417 207.698 33.8229 207.531 34.3438C207.365 34.8646 207.281 35.6458 207.281 36.6875C207.281 37.9167 207.406 39.0521 207.656 40.0938C207.906 41.1354 208.208 42.0312 208.562 42.7812C208.917 43.5312 209.281 44.125 209.656 44.5625C210.052 44.9792 210.375 45.1875 210.625 45.1875C210.792 45.1875 211.031 45.0312 211.344 44.7188C211.677 44.4062 212.021 43.9792 212.375 43.4375C212.75 42.8958 213.125 42.25 213.5 41.5C213.896 40.75 214.25 39.9375 214.562 39.0625C214.896 38.1667 215.156 37.2292 215.344 36.25C215.552 35.25 215.656 34.2396 215.656 33.2188C215.656 33.0104 215.646 32.8125 215.625 32.625C215.625 32.4167 215.625 32.2083 215.625 32C215.625 31.6458 215.729 31.3542 215.938 31.125C216.167 30.875 216.458 30.75 216.812 30.75C217.083 30.75 217.323 30.8333 217.531 31C217.76 31.1667 217.906 31.3958 217.969 31.6875C217.969 31.6667 218.01 31.8333 218.094 32.1875C218.177 32.5417 218.312 33 218.5 33.5625C218.708 34.1042 218.958 34.6979 219.25 35.3438C219.562 35.9896 219.927 36.5938 220.344 37.1562C220.781 37.6979 221.281 38.1562 221.844 38.5312C222.406 38.9062 223.052 39.0938 223.781 39.0938C224.177 39.0938 224.521 39.0104 224.812 38.8438C225.104 38.6771 225.344 38.4896 225.531 38.2812C225.719 38.0729 225.854 37.875 225.938 37.6875C226.042 37.5 226.094 37.3958 226.094 37.375C226.177 37.1458 226.312 36.9688 226.5 36.8438C226.708 36.6979 226.938 36.625 227.188 36.625C227.521 36.625 227.802 36.75 228.031 37C228.26 37.2292 228.375 37.5 228.375 37.8125C228.375 37.9583 228.344 38.1042 228.281 38.25C228.156 38.5417 227.969 38.875 227.719 39.25C227.49 39.625 227.188 39.9792 226.812 40.3125C226.438 40.6458 225.99 40.9271 225.469 41.1562C224.969 41.3646 224.406 41.4688 223.781 41.4688C223.052 41.4688 222.375 41.3438 221.75 41.0938C221.125 40.8229 220.552 40.4896 220.031 40.0938C219.531 39.6771 219.073 39.2188 218.656 38.7188C218.24 38.1979 217.885 37.6771 217.594 37.1562Z" fill="#7FC0EF"/>
</svg>
