<svg width="30" height="27" viewBox="0 0 30 27" fill="none" xmlns="http://www.w3.org/2000/svg">
<path d="M24.1509 26.8343C23.9166 26.8343 23.6838 26.7649 23.4842 26.6296L15.941 21.5128L11.8952 24.424C11.5779 24.6521 11.1689 24.7096 10.8005 24.5779C10.4325 24.4458 10.1531 24.141 10.0533 23.7631L8.02188 16.0645L0.763357 13.2891C0.306405 13.1143 0.00335265 12.6771 2.76305e-05 12.1879C-0.00329739 11.6986 0.293738 11.2574 0.748474 11.0764L28.348 0.0943084C28.4733 0.0411081 28.6058 0.0103911 28.7394 0.00215769C28.7873 -0.000692333 28.8352 -0.000692246 28.8829 0.00199944C29.1597 0.0184662 29.4315 0.1312 29.6437 0.339252C29.6657 0.360785 29.6866 0.382794 29.7064 0.405752C29.8821 0.60652 29.9787 0.851305 29.9969 1.10068C30.0014 1.16338 30.0011 1.22687 29.9955 1.29037C29.9917 1.33565 29.9852 1.38077 29.976 1.42558L25.3174 25.8691C25.2425 26.2618 24.9752 26.5905 24.606 26.7436C24.4595 26.8044 24.3048 26.8343 24.1509 26.8343ZM16.6033 19.0922L23.3225 23.6499L26.9474 4.63011L13.8552 17.2281L16.5716 19.0708C16.5825 19.0776 16.593 19.0849 16.6033 19.0922ZM11.0098 18.0787L11.9095 21.4877L13.8478 20.0929L11.3097 18.3712C11.1917 18.2914 11.0907 18.1919 11.0098 18.0787ZM4.45492 12.1576L9.43897 14.0632C9.79601 14.1997 10.0655 14.4999 10.163 14.8694L10.7951 17.2649C10.8241 16.9886 10.9493 16.7286 11.1528 16.5327L23.6278 4.52878L4.45492 12.1576Z" fill="#356689"/>
</svg>
