<svg width="30" height="25" viewBox="0 0 30 25" fill="none" xmlns="http://www.w3.org/2000/svg">
<path d="M29.798 3.50848C29.4417 2.99509 28.7362 2.86738 28.2223 3.22378L24.7069 5.66304C24.3876 5.88448 24.2044 6.25417 24.2211 6.64227C24.2313 6.87504 24.2362 7.09332 24.2362 7.30948C24.2362 14.4953 18.7684 21.9278 9.61809 21.9278C7.75276 21.9278 5.92019 21.5727 4.20748 20.8879L9.63258 19.3705C10.2347 19.202 10.5863 18.5774 10.4178 17.9752C10.2494 17.3732 9.62534 17.0215 9.02258 17.19L0.827183 19.4823C0.39757 19.6025 0.0786061 19.9637 0.0124886 20.405C-0.0534779 20.8461 0.145629 21.285 0.521201 21.5258C3.24198 23.2701 6.38769 24.1922 9.61809 24.1922C15.9667 24.1922 19.943 21.1928 22.1609 18.6767C24.9189 15.5478 26.5005 11.4047 26.5005 7.30963C26.5005 7.2648 26.5004 7.21997 26.5001 7.17498L29.5133 5.08428C30.0268 4.72773 30.1544 4.02233 29.798 3.50848Z" fill="#356689"/>
<path d="M2.499 3.15537L13.9088 8.93914C14.0706 9.02126 14.246 9.06157 14.4205 9.06157C14.669 9.06157 14.916 8.9799 15.1193 8.82034C15.4654 8.54893 15.623 8.10166 15.5234 7.6731C15.4478 7.34795 15.4096 7.00951 15.4096 6.66745C15.4096 4.23967 17.3851 2.26445 19.8133 2.26445C21.0271 2.26445 22.199 2.7712 23.028 3.65488C23.3378 3.98516 23.8146 4.09883 24.2403 3.94426L27.7618 2.66478C28.3494 2.45118 28.6528 1.80178 28.4392 1.21412C28.2258 0.626305 27.5758 0.323342 26.9886 0.536638L24.123 1.57776C22.9261 0.567584 21.3934 0 19.8133 0C16.352 0 13.4982 2.65089 13.1756 6.02877L3.52276 1.13577C2.96499 0.852885 2.28374 1.07599 2.001 1.63362C1.71827 2.19139 1.94123 2.87264 2.499 3.15537Z" fill="#356689"/>
<path d="M1.91541 9.93513L4.42244 10.6273C4.52328 10.6552 4.62457 10.6683 4.72435 10.6683C5.22083 10.6683 5.67641 10.3391 5.81498 9.83716C5.98149 9.23456 5.62765 8.61097 5.02505 8.44447L2.51802 7.75235C1.91571 7.586 1.29182 7.93953 1.12532 8.54228C0.958972 9.14519 1.31266 9.76863 1.91541 9.93513Z" fill="#356689"/>
<path d="M4.11337 13.3049C3.48858 13.3286 3.0013 13.8542 3.025 14.479C3.04809 15.0893 3.55001 15.5683 4.15564 15.5683C4.17013 15.5683 4.18462 15.568 4.19911 15.5675L6.6992 15.4727C7.32399 15.449 7.81127 14.9234 7.78772 14.2985C7.76402 13.6737 7.23704 13.187 6.61361 13.2101L4.11337 13.3049Z" fill="#356689"/>
</svg>
