<svg width="30" height="22" viewBox="0 0 30 22" fill="none" xmlns="http://www.w3.org/2000/svg">
<path d="M24.7634 0H5.23656C2.34908 0 0 2.34979 0 5.23799V16.4053C0 19.2935 2.34908 21.6432 5.23656 21.6432H24.7636C27.6509 21.6432 30 19.2935 30 16.4053V5.23799C29.9999 2.34979 27.6508 0 24.7634 0ZM27.8537 16.4052C27.8537 18.11 26.4674 19.4968 24.7634 19.4968H5.23656C3.53248 19.4968 2.14619 18.11 2.14619 16.4052V5.23784C2.14619 3.53306 3.53248 2.14619 5.23656 2.14619H24.7636C26.4675 2.14619 27.8538 3.53306 27.8538 5.23784V16.4052H27.8537Z" fill="#356689"/>
<path d="M20.76 9.92497L12.8053 4.68112C12.4758 4.46378 12.0536 4.44518 11.7059 4.63219C11.3584 4.81933 11.1416 5.18233 11.1416 5.57708V16.0661C11.1416 16.4608 11.3584 16.8237 11.7059 17.011C11.8652 17.0968 12.0401 17.1392 12.2146 17.1392C12.4209 17.1392 12.6268 17.0798 12.8053 16.9619L20.76 11.7168C21.0611 11.5182 21.2424 11.1816 21.2424 10.8208C21.2424 10.4601 21.0611 10.1236 20.76 9.92497ZM13.2878 14.0731V7.56975L18.2199 10.8209L13.2878 14.0731Z" fill="#356689"/>
</svg>
